<svg xmlns="http://www.w3.org/2000/svg" width="878" height="876"><circle fill="#36384C" stroke="#000" stroke-miterlimit="10" cx="439" cy="216" r="216"/><path fill="#37394C" d="M0 876s0-326.848 325.873-421.36c0 0 103.867 53.902 216.47 0l40.611 14.399S453.368 656.218 653.47 750.732V876H0zm692.422-120.444s84.835 12.645 152.134-46.903c0 0 30.997 73.256 33.444 167.348H692.422V755.556z"/><path fill="#5A499B" stroke="#000" stroke-miterlimit="10" d="M819.431 486.032c-55.455-55.455-145.364-55.454-200.818 0-55.455 55.455-55.455 145.363 0 200.818s145.363 55.455 200.818 0c55.454-55.454 55.455-145.363 0-200.818zm-54.818 172.675l-45.593-45.593-45.591 45.593-26.673-26.673 45.592-45.592-45.593-45.593 26.673-26.673 45.593 45.594 45.593-45.594 26.672 26.672-45.593 45.594 45.593 45.592-26.673 26.673z"/></svg>